<svg height="800" viewBox="0 0 488.446 488.446" width="800" xmlns="http://www.w3.org/2000/svg"><path d="m153.029 90.223h182.404c5.427 0 9.873-4.43 9.873-9.869v-80.354h-202.169v80.354c0 5.439 4.434 9.869 9.892 9.869z"/><path d="m480.817 122.864-102.937-103.37v60.859c0 23.404-19.043 42.447-42.447 42.447h-182.404c-23.409 0-42.447-19.043-42.447-42.447v-80.353h-65.759c-24.755 0-44.821 20.07-44.821 44.808v398.831c0 24.736 20.066 44.808 44.821 44.808h398.813c24.74 0 44.808-20.068 44.808-44.808v-302.314c0-6.933-2.746-13.567-7.627-18.461zm-68.356 262.802c0 14.434-11.703 26.154-26.168 26.154h-284.156c-14.451 0-26.153-11.722-26.153-26.154v-136.363c0-14.43 11.702-26.148 26.153-26.148h284.156c14.465 0 26.168 11.72 26.168 26.148z"/><path d="m356.497 265.131h-224.548c-9.008 0-16.294 7.273-16.294 16.28s7.286 16.28 16.294 16.28h224.549c8.988 0 16.277-7.273 16.277-16.28s-7.288-16.28-16.278-16.28z"/><path d="m323.936 330.264h-159.428c-8.994 0-16.28 7.273-16.28 16.28 0 8.989 7.286 16.28 16.28 16.28h159.427c8.994 0 16.281-7.291 16.281-16.28.001-9.007-7.286-16.28-16.28-16.28z"/></svg>